<svg width="148" height="40" viewBox="0 0 148 40" fill="none" xmlns="http://www.w3.org/2000/svg">
<path d="M13.0858 33.8475C19.8319 33.8475 25.3006 28.3787 25.3006 21.6327C25.3006 14.8866 19.8319 9.41782 13.0858 9.41782C6.33972 9.41782 0.870941 14.8866 0.870941 21.6327C0.870941 28.3787 6.33972 33.8475 13.0858 33.8475Z" fill="#FFC141" stroke="#005231" stroke-width="1.57257"/>
<path d="M25.3006 21.6327V20.8464H24.5144C21.7877 20.8464 20.2623 20.1674 19.3399 19.2802C18.3987 18.3751 17.9601 17.1383 17.6486 15.7466C17.5548 15.3278 17.4806 14.9379 17.4054 14.5427C17.3508 14.2556 17.2956 13.9657 17.232 13.6601C17.0904 12.979 16.9185 12.2866 16.6461 11.6715C16.3703 11.0485 15.9751 10.4668 15.3663 10.0476C14.7537 9.62573 13.9968 9.41782 13.0858 9.41782C12.1748 9.41782 11.4179 9.62573 10.8053 10.0476C10.1965 10.4668 9.80131 11.0485 9.52547 11.6715C9.25309 12.2866 9.08119 12.979 8.93955 13.6601C8.87599 13.9657 8.82082 14.2556 8.76618 14.5427C8.69097 14.9379 8.61674 15.3278 8.52299 15.7466C8.21145 17.1383 7.77287 18.3751 6.83172 19.2802C5.90932 20.1674 4.38385 20.8464 1.65723 20.8464H0.870941V21.6327C0.870941 28.3787 6.33972 33.8475 13.0858 33.8475C19.8319 33.8475 25.3006 28.3787 25.3006 21.6327Z" fill="#01BE72" stroke="#005231" stroke-width="1.57257"/>
<path d="M9.7458 23.7079C9.7458 23.7079 9.99634 23.8391 9.99634 23.9185C9.99634 23.9737 9.92524 24.0221 9.86092 24.0497C9.79659 24.0773 9.74919 24.1325 9.74242 24.2016L9.71533 24.4053L11.3777 26.9046L11.9668 27.1566L13.2805 25.7309L12.4476 23.5077L10.88 23.4697L9.7458 23.7079Z" fill="#005231"/>
<path d="M10.8455 24.102C11.7427 24.3126 12.2472 25.4829 11.9695 26.7188C11.6919 27.9512 10.7405 28.7831 9.83994 28.5725C8.94274 28.362 8.43827 27.1917 8.7159 25.9558C8.99352 24.72 9.94829 23.8915 10.8455 24.102Z" fill="#005231"/>
<path d="M16.1103 25.162C15.9376 26.0561 15.3586 26.7086 14.7018 26.5947C14.0484 26.4808 13.6556 25.6626 13.8283 24.765C14.001 23.8709 14.6713 23.2392 15.3282 23.3531C15.9816 23.467 16.2829 24.2679 16.1103 25.162Z" fill="#005231"/>
<path d="M15.9583 25.1588C15.8262 25.8354 15.5046 26.3532 15.1829 26.298C14.8613 26.2428 14.7089 25.6421 14.841 24.9655C14.973 24.2889 15.3353 23.7848 15.6569 23.8401C15.9786 23.8953 16.0903 24.4822 15.9583 25.1588Z" fill="#01BE72"/>
<path d="M11.2557 24.6271C12.6134 25.1242 11.4318 28.4866 10.0741 27.9895C8.71649 27.4924 9.89809 24.13 11.2557 24.6271Z" fill="#01BE72"/>
<path d="M11.7096 26.6049C11.4083 27.5404 10.6973 28.1687 10.1217 28.0099C9.9355 27.9581 9.78315 27.827 9.6748 27.6405C9.70189 27.6509 9.73236 27.6544 9.76283 27.6613C10.3282 27.7717 10.9478 27.1503 11.1442 26.2666C11.2965 25.5693 11.1442 24.9203 10.7921 24.6234C10.9343 24.5785 11.0765 24.575 11.2119 24.613C11.7875 24.7753 12.0143 25.6659 11.713 26.6015L11.7096 26.6049Z" fill="#005231"/>
<path d="M15.4808 22.7215L15.4673 22.9942L16.4491 23.046L16.3983 22.4522L15.9244 22.4453L15.4808 22.7215Z" fill="#005231"/>
<path d="M16.3639 21.5201C16.3097 21.6788 16.1336 22.1449 16.0964 22.245L16.0253 22.3279L15.7375 22.2036L15.4531 21.4337L15.5175 21.3785C15.5175 21.3785 15.6529 21.2232 15.9271 21.2266C16.0659 21.2266 16.1946 21.237 16.286 21.268C16.3334 21.3129 16.4045 21.4027 16.3639 21.5235V21.5201Z" fill="#005231"/>
<path d="M15.6763 23.5494L15.7778 23.7082L16.0622 23.7221L16.1469 22.5L15.683 22.5069L15.6763 23.5494Z" fill="#005231"/>
<path d="M15.0405 22.9803L16.1341 22.5005L16.1443 22.466C16.1646 22.3831 16.0935 22.3037 16.0021 22.3037H15.8192L15.2267 22.7042L15.0405 22.9838V22.9803Z" fill="#005231"/>
<path d="M15.0464 21.5786L15.5204 21.3818L15.7032 21.3991C15.93 21.4164 16.1027 21.5924 16.1027 21.7995L16.0621 22.1448C16.0553 22.1931 16.035 22.2345 15.9978 22.269L15.886 22.3761L15.1649 22.8455L15.0464 21.5786Z" fill="#005231"/>
<path d="M13.5987 19.1104L16.0025 19.2415L15.884 21.7858L13.5547 21.5096L13.5987 19.1104Z" fill="#01BE72"/>
<path d="M17.0949 21.1021L15.8828 21.7857L16.0013 19.2414L17.2405 18.7754L17.0949 21.1021Z" fill="#005231"/>
<path d="M13.5986 19.1103L14.9631 18.6719L17.2416 18.7754L16.0025 19.2415L13.5986 19.1103Z" fill="#005231"/>
<path d="M17.2177 19.165L15.9819 19.6483L16.0022 19.241L17.2414 18.7715L17.2177 19.165Z" fill="#01BE72"/>
<path d="M15.8229 23.4561L14.8241 25.555C14.7699 25.6723 14.8275 25.8104 14.9527 25.8622C15.0814 25.914 15.2304 25.8587 15.2845 25.7379L16.2393 23.5907L15.8229 23.4561Z" fill="#005231"/>
<path d="M14.8922 24.7368C14.8922 24.7368 14.9192 25.1062 14.8955 25.227C14.8718 25.3478 14.7026 25.5273 14.7161 25.6516C14.7432 25.8794 15.0682 25.8277 15.1664 25.7931C15.5219 25.6654 15.5524 25.3582 15.5524 25.3582L15.6302 25.2132C15.6539 25.1649 15.6539 25.1096 15.6336 25.0613L15.4203 24.5918L14.8955 24.7402L14.8922 24.7368Z" fill="white"/>
<path d="M15.5458 21.6267C15.5458 21.6267 15.8945 22.2239 15.0244 23.0973C14.9804 23.1422 14.9736 23.2043 15.0007 23.2595C15.1091 23.4597 15.363 23.9327 15.3901 24.0915C15.4273 24.2986 15.5018 24.592 15.5018 24.592C15.5018 24.592 15.3799 24.9131 14.8585 24.8061C14.8585 24.8061 14.3947 23.8084 14.2119 23.5115C13.9816 23.1422 14.0155 22.9281 14.1272 22.7383L13.6871 22.2101L13.5923 21.4092L15.5424 21.6232L15.5458 21.6267Z" fill="#005231"/>
<path d="M12.4506 19.6934L12.2711 19.7866L11.8852 20.1421C11.8852 20.1421 11.8852 20.187 11.6888 20.2353C11.4924 20.2837 11.1606 20.7428 11.1606 20.7428L11.7125 21.0155L12.7688 20.1456L12.454 19.6934H12.4506Z" fill="#005231"/>
<path d="M12.271 19.7868C12.271 19.7868 12.5317 19.1999 12.8702 19.1723C13.2088 19.1447 14.475 18.9583 14.475 18.9583C14.475 18.9583 14.6782 18.9031 14.8779 19.0515C15.0777 19.1999 15.1454 19.2966 15.2571 19.7661C15.2571 19.7661 15.2978 20.1631 15.3282 20.3012C15.3519 20.4013 15.4772 20.8121 15.5009 21.254C15.5009 21.254 15.5348 21.5094 15.6025 21.6889C15.6702 21.8684 15.6059 21.8443 15.6059 21.8443C15.6059 21.8443 15.6533 21.5819 14.5631 21.5888C13.4695 21.5957 13.3375 21.5785 13.3375 21.5785L13.439 21.3437C13.439 21.3437 13.3375 21.109 13.3815 20.964C13.3815 20.964 12.9041 20.3737 12.8939 20.0768L12.772 20.1907C12.772 20.1907 12.5046 19.8075 12.2676 19.7868H12.271Z" fill="#FFC141"/>
<path d="M14.2959 22.5453L14.1267 22.8836C14.1267 22.8836 14.13 22.8595 14.1097 22.825C14.086 22.7766 14.0217 22.7214 13.8897 22.7145C13.7339 22.7041 13.2362 22.6834 12.9484 22.6731C12.8232 22.6662 12.7385 22.6627 12.7385 22.6627L12.4338 22.3279L12.2611 22.138L12.0986 21.9619C12.0986 21.9619 12.1325 21.9205 12.1867 21.8653C12.3424 21.6961 12.6844 21.3682 12.901 21.3854C13.1922 21.4096 13.7712 21.3682 13.9066 21.6133C14.042 21.8549 14.4686 22.2036 14.2993 22.5453H14.2959Z" fill="#005231"/>
<path d="M13.0974 21.7681C13.0974 21.7681 13.0974 21.6991 13.0974 21.6369C13.0974 21.5644 13.1719 21.5161 13.2464 21.5334L13.6391 21.6369L13.331 22.1133C13.2803 22.1927 13.1787 22.2341 13.0805 22.2203C13.0805 22.2203 12.8841 22.1375 12.813 22.1237C12.7284 22.1064 12.4778 22.1237 12.4778 22.1237L12.3052 21.5989L12.3255 21.5299C12.339 21.485 12.383 21.4574 12.4304 21.4574H12.5252L12.5422 21.3538C12.5489 21.3124 12.593 21.2848 12.6404 21.2952L12.8977 21.3504C12.9518 21.3642 12.9857 21.4125 12.9755 21.4609L12.9281 21.6956L13.1008 21.7681H13.0974Z" fill="#005231"/>
<path d="M12.8333 22.6043L12.4101 21.6895C12.3661 21.5963 12.2408 21.5583 12.1494 21.6135L11.9463 21.7378L12.0919 22.4351L12.8333 22.6043Z" fill="#005231"/>
<path d="M13.0258 22.5141L12.9446 22.6729L12.8633 22.8455C12.8396 22.8904 12.8024 22.9249 12.7516 22.9422C12.6534 22.9801 12.4604 23.0492 12.2234 23.1355C11.8341 23.2736 11.3161 23.4462 10.8319 23.5774C10.3004 23.7223 9.81283 23.819 9.59615 23.7603C9.15262 23.6429 9.35576 23.0526 9.44041 22.6418C9.60292 21.8755 10.0295 21.4474 10.1886 21.3093C10.2259 21.2782 10.2733 21.2575 10.3241 21.2506L12.3724 21.04C12.3724 21.04 12.1286 21.4267 12.1794 21.8651C12.1896 21.9514 12.2099 22.0343 12.2471 22.1206C12.2471 22.1275 12.2505 22.1309 12.2539 22.1378C12.2945 22.2241 12.3589 22.2863 12.43 22.3277C12.5959 22.4278 12.8125 22.4312 12.948 22.4209C13.0021 22.4174 13.0428 22.4692 13.0225 22.5141H13.0258Z" fill="#005231"/>
<path d="M10.7849 25.8939C11.1675 25.9733 10.9948 26.8294 10.6122 26.75C10.2297 26.6706 10.4057 25.8145 10.7849 25.8939Z" fill="#005231"/>
<path d="M11.8957 23.9326L10.9071 26.3457C10.8936 26.3802 10.8902 26.4147 10.8969 26.4527L10.9003 26.4699C10.9071 26.5114 10.9477 26.5459 10.9917 26.5528L11.1949 26.5839C11.2524 26.5908 11.31 26.5597 11.3269 26.5079L12.0819 23.9948L11.8957 23.9326Z" fill="#005231"/>
<path d="M11.3061 26.308C11.3806 26.3321 11.3129 26.5634 11.2384 26.5392C11.1639 26.5185 11.2316 26.2872 11.3061 26.308Z" fill="#005231"/>
<path d="M9.68408 24.3784L10.0633 24.1471L10.6558 24.3163L10.798 26.2426C10.8014 26.2875 10.8352 26.3254 10.8826 26.3358L10.9639 26.3531L11.9389 24.0229L10.1987 23.9814L9.68408 24.3784Z" fill="#005231"/>
<path d="M10.8016 26.2074C10.9404 26.2143 10.9268 26.4559 10.788 26.449C10.6492 26.4386 10.6627 26.197 10.8016 26.2074Z" fill="#005231"/>
<path d="M16.4256 21.4229C16.4154 21.5299 16.4019 21.7164 16.3917 21.8268C16.385 21.8855 16.3646 21.9407 16.324 21.9891L16.0972 22.248C16.1344 22.1479 16.3105 21.6784 16.3646 21.523C16.4053 21.4057 16.3308 21.3125 16.2834 21.2676C16.3748 21.2952 16.4357 21.347 16.4256 21.4264V21.4229Z" fill="#005231"/>
<path d="M12.9211 25.6002C12.9211 25.6002 12.6367 25.6796 12.6197 25.8695C12.6028 26.0594 12.5622 26.3459 12.2846 26.5254C12.0069 26.7049 11.9663 27.1572 11.9663 27.1572L13.9774 26.4909C13.9774 26.4909 14.597 26.3597 14.7256 25.9144C14.7324 25.8971 14.7053 25.8833 14.6884 25.8937L14.6207 25.9351L14.6376 25.7452L13.7946 25.4069C13.7946 25.4069 13.9909 25.2965 13.886 24.7959L12.9211 25.6002Z" fill="#005231"/>
<path d="M14.1466 24.1295C14.1466 24.1295 13.5575 25.9453 12.7991 26.1386C12.7991 26.1386 13.026 24.8199 12.3285 24.2814C11.7326 23.8222 11.0284 23.622 10.832 23.5737C10.7982 23.5668 10.7812 23.5599 10.7812 23.5599L11.6311 23.2181C11.6311 23.2181 11.8816 23.1698 12.2236 23.1318C12.8127 23.0731 13.6828 23.0524 14.0823 23.3907C14.1669 23.4632 14.2143 23.5426 14.238 23.622C14.3159 23.874 14.1466 24.1295 14.1466 24.1295Z" fill="#005231"/>
<path d="M14.2415 23.6222C14.2178 23.5428 14.1704 23.4668 14.0858 23.3943C13.6863 23.056 12.8162 23.0768 12.2271 23.1354C12.464 23.0526 12.657 22.9801 12.7552 22.9421C12.8026 22.9249 12.8432 22.8903 12.8669 22.8455L12.9482 22.6729C13.236 22.6867 13.7371 22.7074 13.8928 22.7143C14.0248 22.7212 14.0824 22.7799 14.1095 22.8282C14.0858 22.9766 14.0689 23.2045 14.1806 23.3633C14.2686 23.491 14.2686 23.5704 14.2449 23.6222H14.2415Z" fill="#005231"/>
<path d="M8.67894 20.7633L9.42379 20.8324C9.42379 20.8324 9.61338 20.8048 9.3256 20.463C9.03782 20.1178 8.61461 19.9797 8.47241 20.1074C8.33021 20.2386 8.44532 20.5907 8.67894 20.7633Z" fill="#005231"/>
<path d="M9.16012 20.6807L9.68152 20.7117L9.67475 20.8015L9.15674 20.7704L9.16012 20.6807Z" fill="#005231"/>
<path d="M10.1485 21.7165L10.0673 21.7476L9.59668 20.743L9.68132 20.7119L10.1485 21.7165Z" fill="#005231"/>
<path d="M13.5645 21.0846L12.8163 21.0605C12.8163 21.0605 12.63 21.0156 12.9585 20.7084C13.2869 20.4011 13.7202 20.3114 13.8489 20.4564C13.9775 20.6013 13.8218 20.9397 13.5679 21.0846H13.5645Z" fill="#005231"/>
<path d="M13.0903 21.0296L12.5723 20.9985L12.5757 20.9053L13.097 20.9363L13.0903 21.0296Z" fill="#005231"/>
<path d="M11.9937 21.8447L12.0715 21.8861L12.6572 20.9506L12.5794 20.9092L11.9937 21.8447Z" fill="#005231"/>
<path d="M16.0393 23.5002C16.3238 23.578 16.3172 23.603 16.0327 23.5252C15.7482 23.4473 15.7548 23.4223 16.0393 23.5002Z" stroke="#005231" stroke-width="0.228207" stroke-miterlimit="10"/>
<path d="M9.55262 22.5557C9.55262 22.5557 9.85056 22.8146 10.9001 22.7524L10.934 23.1494C10.934 23.1494 10.2027 23.6327 9.67451 23.4843C9.42735 23.4152 9.33594 23.1736 9.33594 23.1736L9.37995 22.925L9.54924 22.5591L9.55262 22.5557Z" fill="#FFF59C"/>
<path d="M14.2347 18.7715C14.5631 18.9441 14.0756 19.9107 13.7472 19.7381C13.4188 19.5655 13.9063 18.5989 14.2347 18.7715Z" fill="#005231"/>
<path d="M14.4788 18.9548C14.4788 18.9548 14.8479 17.8847 14.103 17.5878C13.3582 17.2875 12.725 17.6361 12.7013 18.147L12.6776 18.1677C12.6573 18.185 12.6472 18.2161 12.6505 18.2437L12.725 18.9617C12.7318 19.0066 12.7453 19.0446 12.7792 19.0791L12.8198 19.1205C12.8198 19.1205 12.9282 19.628 13.304 19.6211C14.0116 19.6073 14.4822 18.9583 14.4822 18.9583L14.4788 18.9548Z" fill="#005231"/>
<path d="M14.092 18.9032C13.767 19.1276 13.2558 19.3658 12.819 19.1276V19.1207L12.775 19.0793C12.7445 19.0447 12.7242 19.0068 12.7175 18.9619L12.6464 18.2438C12.643 18.2197 12.6497 18.1921 12.6667 18.1748C12.6802 18.2197 12.7615 18.2887 13.1813 18.2956C13.5402 18.2991 13.9261 18.2715 14.1767 18.2473C14.2004 18.3819 14.2275 18.6823 14.092 18.9032Z" fill="#048C55"/>
<path d="M14.4173 18.6232C14.3936 18.6577 14.2751 18.7785 14.0923 18.9028C14.2311 18.6819 14.1972 18.385 14.1735 18.2469C14.3428 18.2296 14.4546 18.2158 14.4546 18.2158C14.4546 18.2158 14.4816 18.5231 14.4139 18.6232H14.4173Z" fill="#005231"/>
<path d="M14.3874 18.2852C14.4415 18.2887 14.4314 18.4544 14.3772 18.4509C14.323 18.4475 14.3332 18.2818 14.3874 18.2852Z" fill="#005231"/>
<path d="M10.1934 21.6679L10.3491 21.1639C10.5252 20.653 10.8976 20.4942 11.6086 20.6737L12.4347 20.9982L11.4393 21.8267L10.1934 21.6645V21.6679Z" fill="#005231"/>
<path d="M14.726 21.979L13.4936 21.6855L13.436 21.8858L14.6583 22.193C14.7057 22.2034 14.7497 22.1792 14.7598 22.1378L14.7768 22.0584C14.7835 22.0239 14.7598 21.9893 14.726 21.9824V21.979Z" fill="#005231"/>
<path d="M15.105 20.1973C15.105 20.1973 15.149 20.615 14.8545 21.2329C14.5599 21.8508 14.4821 21.7611 14.4821 21.7611L14.4347 21.8957L14.2654 21.8854L14.1977 22.0925L13.9708 22.0338L13.9573 21.7818L13.8456 21.9337L13.8252 22.0476L13.7101 22.1236L13.6492 22.0994L13.6695 21.9855L13.5815 22.0269L13.5747 21.7852L13.7203 21.516L14.0826 21.5609L14.3974 20.8187L14.4516 20.325L15.1016 20.1973H15.105Z" fill="#005231"/>
<path d="M14.4484 20.3805C14.4484 20.3805 14.7599 20.2148 15.1594 20.308L15.1391 19.6797L14.313 19.835L14.4518 20.3736L14.4484 20.3805Z" fill="#005231"/>
<path d="M15.1049 20.3008L15.0981 20.3974L15.1997 20.3319C15.1997 20.3319 15.176 20.3146 15.1049 20.3008Z" fill="#003F2B"/>
<path d="M10.4447 22.5417C10.6682 22.4904 10.8076 22.2676 10.7563 22.0442C10.7049 21.8208 10.4822 21.6813 10.2587 21.7327C10.0353 21.784 9.89584 22.0068 9.9472 22.2302C9.99856 22.4536 10.2213 22.5931 10.4447 22.5417Z" fill="#005231" stroke="#005231" stroke-width="0.0534392"/>
<path d="M10.7369 22.2909L10.7469 22.2661L10.722 22.2562C10.636 22.2217 10.5965 22.1811 10.5786 22.1414C10.5603 22.101 10.5621 22.0564 10.5698 22.0086C10.5721 21.9942 10.5747 21.9809 10.5773 21.9675C10.5792 21.9578 10.5812 21.9479 10.583 21.9375C10.5871 21.9142 10.5905 21.8902 10.5896 21.8674C10.5888 21.8442 10.5837 21.8209 10.5698 21.8C10.5557 21.7789 10.5345 21.7628 10.5058 21.7513C10.477 21.7398 10.4505 21.7368 10.4259 21.7424C10.4014 21.7479 10.3815 21.7613 10.365 21.7775C10.3486 21.7934 10.3345 21.8131 10.3214 21.8328C10.3155 21.8416 10.3101 21.8501 10.3048 21.8585C10.2974 21.87 10.2901 21.8813 10.2819 21.8934C10.2545 21.9334 10.2251 21.9668 10.1839 21.9835C10.1436 21.9999 10.0869 22.002 10.0009 21.9676L9.9761 21.9577L9.96617 21.9825C9.88101 22.1953 9.98451 22.4369 10.1973 22.5221C10.4102 22.6072 10.6518 22.5037 10.7369 22.2909Z" fill="#005231" stroke="#005231" stroke-width="0.0534392"/>
<path d="M36.2971 30V10.5388H39.3795V19.1069H48.3918V10.5388H51.4481V30H48.3918V21.8498H39.3795V30H36.2971ZM59.4252 30.3135C58.4674 30.3135 57.6228 30.148 56.8913 29.8171C56.1773 29.4688 55.6201 28.9986 55.2195 28.4065C54.819 27.797 54.6187 27.083 54.6187 26.2645C54.6187 25.4982 54.7841 24.8103 55.115 24.2008C55.4633 23.5913 55.9945 23.0776 56.7085 22.6596C57.4225 22.2416 58.3194 21.9456 59.3991 21.7714L64.3101 20.9616V23.2865L59.9738 24.0441C59.1901 24.1834 58.6154 24.4359 58.2497 24.8016C57.884 25.1499 57.7011 25.6027 57.7011 26.16C57.7011 26.6999 57.9014 27.1439 58.302 27.4922C58.7199 27.8231 59.2511 27.9886 59.8954 27.9886C60.6965 27.9886 61.3931 27.8144 61.9852 27.4661C62.5947 27.1178 63.0649 26.6563 63.3958 26.0816C63.7267 25.4895 63.8922 24.8365 63.8922 24.1225V20.4914C63.8922 19.7948 63.6309 19.2288 63.1085 18.7935C62.6035 18.3407 61.9243 18.1143 61.0709 18.1143C60.2873 18.1143 59.5994 18.3233 59.0073 18.7412C58.4326 19.1418 58.0059 19.6642 57.7273 20.3086L55.2718 19.0808C55.533 18.3842 55.9596 17.7747 56.5518 17.2523C57.1439 16.7124 57.8318 16.2944 58.6154 15.9984C59.4165 15.7023 60.2611 15.5543 61.1493 15.5543C62.2639 15.5543 63.2478 15.7633 64.1011 16.1812C64.9719 16.5992 65.6424 17.1826 66.1126 17.9314C66.6002 18.6629 66.844 19.5162 66.844 20.4914V30H64.0228V27.44L64.6236 27.5184C64.2927 28.0931 63.866 28.5894 63.3436 29.0073C62.8386 29.4253 62.2552 29.7475 61.5934 29.9739C60.949 30.2003 60.2263 30.3135 59.4252 30.3135ZM70.2954 30V15.8678H73.1166V18.7151L72.8554 18.2971C73.1689 17.3742 73.6739 16.7124 74.3705 16.3118C75.0671 15.8939 75.903 15.6849 76.8783 15.6849H77.7403V18.3755H76.5126C75.5373 18.3755 74.7449 18.6803 74.1354 19.2898C73.5433 19.8819 73.2473 20.7352 73.2473 21.8498V30H70.2954ZM83.8609 30L78.323 15.8678H81.536L85.794 27.3878H84.6185L88.8764 15.8678H92.1156L86.5515 30H83.8609ZM100.502 30.3135C99.0913 30.3135 97.8374 29.9913 96.7403 29.3469C95.6606 28.6852 94.8159 27.797 94.2064 26.6825C93.5969 25.5505 93.2921 24.2879 93.2921 22.8947C93.2921 21.4667 93.5969 20.2041 94.2064 19.1069C94.8334 18.0098 95.6693 17.1478 96.7142 16.5208C97.7591 15.8765 98.9433 15.5543 100.267 15.5543C101.329 15.5543 102.278 15.7372 103.114 16.1029C103.95 16.4686 104.655 16.9736 105.23 17.618C105.805 18.2449 106.24 18.9676 106.536 19.7861C106.85 20.6046 107.006 21.4754 107.006 22.3984C107.006 22.6248 106.998 22.8599 106.98 23.1037C106.963 23.3475 106.928 23.5739 106.876 23.7829H95.617V21.4318H105.204L103.793 22.5029C103.968 21.6495 103.907 20.892 103.611 20.2302C103.332 19.551 102.896 19.0199 102.304 18.6367C101.73 18.2362 101.051 18.0359 100.267 18.0359C99.4832 18.0359 98.7866 18.2362 98.177 18.6367C97.5675 19.0199 97.0973 19.5771 96.7664 20.3086C96.4355 21.0226 96.3049 21.8933 96.3746 22.9208C96.2875 23.8786 96.4181 24.7146 96.7664 25.4286C97.1321 26.1426 97.6372 26.6999 98.2815 27.1004C98.9433 27.501 99.6921 27.7012 100.528 27.7012C101.381 27.7012 102.104 27.5097 102.696 27.1265C103.306 26.7434 103.785 26.2471 104.133 25.6376L106.536 26.8131C106.258 27.4748 105.822 28.0756 105.23 28.6155C104.655 29.138 103.959 29.5559 103.14 29.8694C102.339 30.1654 101.46 30.3135 100.502 30.3135ZM115.112 30.3135C113.666 30.3135 112.395 29.9565 111.298 29.2424C110.218 28.5284 109.461 27.5706 109.025 26.369L111.298 25.298C111.681 26.099 112.203 26.7347 112.865 27.2049C113.544 27.6751 114.293 27.9102 115.112 27.9102C115.808 27.9102 116.374 27.7535 116.81 27.44C117.245 27.1265 117.463 26.6999 117.463 26.16C117.463 25.8117 117.367 25.5331 117.175 25.3241C116.984 25.0977 116.74 24.9148 116.444 24.7755C116.165 24.6362 115.878 24.5317 115.582 24.462L113.362 23.8351C112.142 23.4868 111.228 22.9644 110.619 22.2678C110.027 21.5537 109.731 20.7265 109.731 19.7861C109.731 18.9328 109.948 18.1927 110.384 17.5657C110.819 16.9214 111.42 16.425 112.186 16.0767C112.952 15.7284 113.814 15.5543 114.772 15.5543C116.061 15.5543 117.21 15.8765 118.22 16.5208C119.23 17.1478 119.944 18.0272 120.362 19.1592L118.09 20.2302C117.811 19.551 117.367 19.0112 116.757 18.6106C116.165 18.2101 115.495 18.0098 114.746 18.0098C114.102 18.0098 113.588 18.1665 113.205 18.48C112.822 18.7761 112.63 19.1679 112.63 19.6555C112.63 19.9864 112.717 20.265 112.891 20.4914C113.065 20.7004 113.292 20.8746 113.57 21.0139C113.849 21.1358 114.136 21.2403 114.433 21.3274L116.731 22.0065C117.898 22.3374 118.795 22.8599 119.422 23.5739C120.049 24.2705 120.362 25.1064 120.362 26.0816C120.362 26.9176 120.136 27.6577 119.683 28.302C119.248 28.929 118.638 29.4253 117.855 29.791C117.071 30.1393 116.157 30.3135 115.112 30.3135ZM129.367 30.1567C127.887 30.1567 126.738 29.7388 125.919 28.9029C125.101 28.0669 124.691 26.8914 124.691 25.3763V18.5323H122.21V15.8678H122.602C123.263 15.8678 123.777 15.6762 124.143 15.2931C124.508 14.9099 124.691 14.3875 124.691 13.7257V12.6286H127.643V15.8678H130.856V18.5323H127.643V25.2457C127.643 25.7333 127.722 26.1513 127.878 26.4996C128.035 26.8305 128.287 27.0917 128.636 27.2833C128.984 27.4574 129.437 27.5445 129.994 27.5445C130.133 27.5445 130.29 27.5358 130.464 27.5184C130.639 27.501 130.804 27.4835 130.961 27.4661V30C130.717 30.0348 130.447 30.0697 130.151 30.1045C129.855 30.1393 129.594 30.1567 129.367 30.1567ZM137.946 30.3135C136.988 30.3135 136.143 30.148 135.412 29.8171C134.698 29.4688 134.14 28.9986 133.74 28.4065C133.339 27.797 133.139 27.083 133.139 26.2645C133.139 25.4982 133.304 24.8103 133.635 24.2008C133.984 23.5913 134.515 23.0776 135.229 22.6596C135.943 22.2416 136.84 21.9456 137.919 21.7714L142.83 20.9616V23.2865L138.494 24.0441C137.71 24.1834 137.136 24.4359 136.77 24.8016C136.404 25.1499 136.222 25.6027 136.222 26.16C136.222 26.6999 136.422 27.1439 136.822 27.4922C137.24 27.8231 137.771 27.9886 138.416 27.9886C139.217 27.9886 139.913 27.8144 140.506 27.4661C141.115 27.1178 141.585 26.6563 141.916 26.0816C142.247 25.4895 142.413 24.8365 142.413 24.1225V20.4914C142.413 19.7948 142.151 19.2288 141.629 18.7935C141.124 18.3407 140.445 18.1143 139.591 18.1143C138.808 18.1143 138.12 18.3233 137.528 18.7412C136.953 19.1418 136.526 19.6642 136.248 20.3086L133.792 19.0808C134.053 18.3842 134.48 17.7747 135.072 17.2523C135.664 16.7124 136.352 16.2944 137.136 15.9984C137.937 15.7023 138.782 15.5543 139.67 15.5543C140.784 15.5543 141.768 15.7633 142.622 16.1812C143.492 16.5992 144.163 17.1826 144.633 17.9314C145.121 18.6629 145.364 19.5162 145.364 20.4914V30H142.543V27.44L143.144 27.5184C142.813 28.0931 142.386 28.5894 141.864 29.0073C141.359 29.4253 140.776 29.7475 140.114 29.9739C139.469 30.2003 138.747 30.3135 137.946 30.3135Z" fill="black"/>
</svg>
