<svg width="20" height="20" viewBox="0 0 20 20" fill="none" xmlns="http://www.w3.org/2000/svg">
<path d="M19.2209 6.66667H16.329L15.7127 2.78333C15.5885 2.19578 15.3158 1.65466 14.9234 1.21743C14.5311 0.780191 14.0339 0.463162 13.4845 0.3C12.9325 0.112709 12.3575 0.0116376 11.7778 0H8.23799C7.65826 0.0116376 7.08327 0.112709 6.5313 0.3C5.9819 0.463162 5.48465 0.780191 5.09234 1.21743C4.70003 1.65466 4.4273 2.19578 4.30312 2.78333L3.68682 6.66667H0.794928C0.670464 6.66587 0.547583 6.6961 0.436295 6.75488C0.325008 6.81367 0.228462 6.89935 0.154524 7.00495C0.0805862 7.11055 0.0313475 7.23307 0.01082 7.36255C-0.00970747 7.49202 -0.000943005 7.62478 0.036399 7.75L3.0073 18.25C3.15855 18.7572 3.45921 19.2004 3.8656 19.5151C4.27198 19.8298 4.76292 19.9997 5.26709 20H14.7487C15.2502 19.9961 15.7375 19.8247 16.1408 19.5102C16.544 19.1958 16.8422 18.7545 16.9927 18.25L19.9636 7.75C20.0005 7.62612 20.0095 7.49484 19.9898 7.36664C19.9701 7.23844 19.9223 7.11687 19.8502 7.01163C19.778 6.90639 19.6835 6.82039 19.5743 6.7605C19.465 6.70061 19.344 6.66847 19.2209 6.66667ZM5.29869 6.66667L5.86759 3.05C5.92995 2.75471 6.07463 2.48583 6.28301 2.27793C6.4914 2.07003 6.75397 1.93261 7.03699 1.88333C7.42573 1.75333 7.83028 1.68167 8.23799 1.66667H11.7778C12.1902 1.68 12.5995 1.75333 12.9946 1.88333C13.2776 1.93261 13.5402 2.07003 13.7486 2.27793C13.957 2.48583 14.1016 2.75471 14.164 3.05L14.7171 6.66667H5.23548H5.29869Z" fill="white"/>
</svg>
